<svg xmlns="http://www.w3.org/2000/svg" viewBox="0 0 2110 1090" width="2110" height="1090" font-family="Segoe UI, Helvetica, Arial, sans-serif">

<defs>
  <marker id="arrow" markerWidth="10" markerHeight="10" refX="8" refY="3" orient="auto" markerUnits="strokeWidth">
    <path d="M0,0 L0,6 L9,3 z" fill="#333"/>
  </marker>
</defs>
<style>
  .pool-title { font-size: 16px; font-weight: 600; fill: #ffffff; }
  .lane-title { font-size: 13px; font-weight: 600; fill: #23395d; }
  .task { fill: #eaf2fb; stroke: #4472a8; stroke-width: 1.6; }
  .gw { fill: #fff3d6; stroke: #b8860b; stroke-width: 1.6; }
  .ev-start { fill: #e7f7e7; stroke: #2e7d32; stroke-width: 2; }
  .ev-end { fill: #fdecea; stroke: #c0392b; stroke-width: 3; }
  .flow { fill: none; stroke: #333333; stroke-width: 1.6; marker-end: url(#arrow); }
  .flow-label { font-size: 11px; fill: #555555; }
  .flow-label-bg { fill: #ffffff; opacity: 0.85; }
</style>

<rect x="0" y="0" width="2110" height="1090" fill="#ffffff"/>
<rect x="0" y="20" width="2100" height="1060" fill="none" stroke="#23395d" stroke-width="2"/>
<rect x="0" y="20" width="40" height="1060" fill="#23395d"/>
<text x="20.0" y="550.0" class="pool-title" text-anchor="middle" dominant-baseline="middle" transform="rotate(-90 20.0 550.0)">CHEC — Local UITI_VANO Interpreter Pipeline</text>
<rect x="40" y="50" width="170" height="220" fill="#d7e3f4" stroke="#23395d" stroke-width="1"/>
<rect x="210" y="50" width="1890" height="220" fill="#ffffff" stroke="#23395d" stroke-width="1"/>
<text x="125.0" y="160.0" class="lane-title" text-anchor="middle" dominant-baseline="middle"><tspan x="125.0" dy="0">Data ingestion</tspan></text>
<rect x="40" y="270" width="170" height="260" fill="#d7e3f4" stroke="#23395d" stroke-width="1"/>
<rect x="210" y="270" width="1890" height="260" fill="#ffffff" stroke="#23395d" stroke-width="1"/>
<text x="125.0" y="400.0" class="lane-title" text-anchor="middle" dominant-baseline="middle"><tspan x="125.0" dy="0">ML modeling —</tspan><tspan x="125.0" dy="16">M-GCECDL</tspan></text>
<rect x="40" y="530" width="170" height="320" fill="#d7e3f4" stroke="#23395d" stroke-width="1"/>
<rect x="210" y="530" width="1890" height="320" fill="#ffffff" stroke="#23395d" stroke-width="1"/>
<text x="125.0" y="690.0" class="lane-title" text-anchor="middle" dominant-baseline="middle"><tspan x="125.0" dy="0">Local</tspan><tspan x="125.0" dy="16">interpretation —</tspan><tspan x="125.0" dy="16">LLM agents</tspan></text>
<rect x="40" y="850" width="170" height="220" fill="#d7e3f4" stroke="#23395d" stroke-width="1"/>
<rect x="210" y="850" width="1890" height="220" fill="#ffffff" stroke="#23395d" stroke-width="1"/>
<text x="125.0" y="960.0" class="lane-title" text-anchor="middle" dominant-baseline="middle"><tspan x="125.0" dy="0">Publication</tspan></text>
<path d="M 288.0,160.0 L 398.0,160.0" class="flow"/>
<path d="M 442.0,160.0 L 470.0,160.0" class="flow"/>
<path d="M 442.0,160.0 L 690.0,160.0" class="flow"/>
<path d="M 442.0,160.0 L 457.4,160.0 L 457.4,320.0 L 470.0,320.0" class="flow"/>
<path d="M 442.0,160.0 L 457.4,160.0 L 457.4,690.0 L 470.0,690.0" class="flow"/>
<path d="M 850.0,160.0 L 762.0,160.0 L 762.0,480.0 L 690.0,480.0" class="flow"/>
<path d="M 850.0,480.0 L 894.0,480.0 L 894.0,400.0 L 930.0,400.0" class="flow"/>
<path d="M 630.0,320.0 L 795.0,320.0 L 795.0,400.0 L 930.0,400.0" class="flow"/>
<path d="M 1090.0,400.0 L 1168.0,400.0" class="flow"/>
<path d="M 1212.0,400.0 L 1238.4,400.0 L 1238.4,320.0 L 1260.0,320.0" class="flow"/>
<path d="M 1212.0,400.0 L 1260.0,400.0" class="flow"/>
<path d="M 1212.0,400.0 L 1238.4,400.0 L 1238.4,480.0 L 1260.0,480.0" class="flow"/>
<path d="M 630.0,690.0 L 690.0,690.0" class="flow"/>
<path d="M 930.0,400.0 L 886.0,400.0 L 886.0,690.0 L 850.0,690.0" class="flow"/>
<path d="M 850.0,690.0 L 930.0,690.0" class="flow"/>
<path d="M 630.0,160.0 L 795.0,160.0 L 795.0,690.0 L 930.0,690.0" class="flow"/>
<path d="M 1260.0,400.0 L 1166.5,400.0 L 1166.5,690.0 L 1090.0,690.0" class="flow"/>
<path d="M 1090.0,690.0 L 1168.0,690.0" class="flow"/>
<path d="M 1168.0,690.0 L 1125.1,690.0 L 1125.1,540.0 L 1090.0,540.0" class="flow"/>
<path d="M 1090.0,540.0 L 1002.0,540.0 L 1002.0,690.0 L 930.0,690.0" class="flow"/>
<path d="M 1212.0,690.0 L 1190.0,690.0 L 1190.0,840.0 L 1172.0,840.0" class="flow"/>
<path d="M 1212.0,690.0 L 1260.0,690.0" class="flow"/>
<path d="M 1090.0,400.0 L 1293.5,400.0 L 1293.5,690.0 L 1460.0,690.0" class="flow"/>
<path d="M 1420.0,690.0 L 1460.0,690.0" class="flow"/>
<path d="M 1420.0,320.0 L 1442.0,320.0 L 1442.0,960.0 L 1460.0,960.0" class="flow"/>
<path d="M 1420.0,690.0 L 1442.0,690.0 L 1442.0,960.0 L 1460.0,960.0" class="flow"/>
<path d="M 1620.0,690.0 L 1532.0,690.0 L 1532.0,960.0 L 1460.0,960.0" class="flow"/>
<path d="M 1620.0,960.0 L 1670.0,960.0" class="flow"/>
<path d="M 1830.0,960.0 L 1912.0,960.0" class="flow"/>
<circle cx="270.0" cy="160.0" r="18.0" class="ev-start"/>
<text x="270.0" y="192.0" font-size="12" font-family="Segoe UI, Helvetica, Arial, sans-serif" text-anchor="middle" dominant-baseline="middle" fill="#1a1a1a">Start</text>
<polygon points="420,138.0 442.0,160.0 420,182.0 398.0,160.0" class="gw"/>
<text x="420.0" y="160.0" font-size="22" text-anchor="middle" dominant-baseline="middle" fill="#8a6100" font-weight="700">+</text>
<rect x="470.0" y="128.0" width="160" height="64" rx="10" ry="10" class="task"/>
<text x="550.0" y="145.0" font-size="13" font-family="Segoe UI, Helvetica, Arial, sans-serif" text-anchor="middle" dominant-baseline="middle" fill="#1a1a1a">Extraer tabla de discusión</text>
<text x="550.0" y="160.0" font-size="13" font-family="Segoe UI, Helvetica, Arial, sans-serif" text-anchor="middle" dominant-baseline="middle" fill="#1a1a1a">de PDFs expertos</text>
<text x="550.0" y="175.0" font-size="13" font-family="Segoe UI, Helvetica, Arial, sans-serif" text-anchor="middle" dominant-baseline="middle" fill="#1a1a1a">(pdf-discussion-extraction)</text>
<rect x="690.0" y="128.0" width="160" height="64" rx="10" ry="10" class="task"/>
<text x="770.0" y="152.5" font-size="13" font-family="Segoe UI, Helvetica, Arial, sans-serif" text-anchor="middle" dominant-baseline="middle" fill="#1a1a1a">Enriquecimiento climático</text>
<text x="770.0" y="167.5" font-size="13" font-family="Segoe UI, Helvetica, Arial, sans-serif" text-anchor="middle" dominant-baseline="middle" fill="#1a1a1a">(Open-Meteo API)</text>
<rect x="470.0" y="288.0" width="160" height="64" rx="10" ry="10" class="task"/>
<text x="550.0" y="312.5" font-size="13" font-family="Segoe UI, Helvetica, Arial, sans-serif" text-anchor="middle" dominant-baseline="middle" fill="#1a1a1a">Construcción de grafo</text>
<text x="550.0" y="327.5" font-size="13" font-family="Segoe UI, Helvetica, Arial, sans-serif" text-anchor="middle" dominant-baseline="middle" fill="#1a1a1a">experto (adjacency)</text>
<rect x="690.0" y="448.0" width="160" height="64" rx="10" ry="10" class="task"/>
<text x="770.0" y="472.5" font-size="13" font-family="Segoe UI, Helvetica, Arial, sans-serif" text-anchor="middle" dominant-baseline="middle" fill="#1a1a1a">Búsqueda de</text>
<text x="770.0" y="487.5" font-size="13" font-family="Segoe UI, Helvetica, Arial, sans-serif" text-anchor="middle" dominant-baseline="middle" fill="#1a1a1a">hiperparámetros (Optuna)</text>
<rect x="930.0" y="368.0" width="160" height="64" rx="10" ry="10" class="task"/>
<text x="1010.0" y="392.5" font-size="13" font-family="Segoe UI, Helvetica, Arial, sans-serif" text-anchor="middle" dominant-baseline="middle" fill="#1a1a1a">Entrenamiento M-GCECDL</text>
<text x="1010.0" y="407.5" font-size="13" font-family="Segoe UI, Helvetica, Arial, sans-serif" text-anchor="middle" dominant-baseline="middle" fill="#1a1a1a">(Colab GPU)</text>
<polygon points="1190,378.0 1212.0,400.0 1190,422.0 1168.0,400.0" class="gw"/>
<text x="1190.0" y="400.0" font-size="22" text-anchor="middle" dominant-baseline="middle" fill="#8a6100" font-weight="700">+</text>
<rect x="1260.0" y="288.0" width="160" height="64" rx="10" ry="10" class="task"/>
<text x="1340.0" y="312.5" font-size="13" font-family="Segoe UI, Helvetica, Arial, sans-serif" text-anchor="middle" dominant-baseline="middle" fill="#1a1a1a">Evaluación de</text>
<text x="1340.0" y="327.5" font-size="13" font-family="Segoe UI, Helvetica, Arial, sans-serif" text-anchor="middle" dominant-baseline="middle" fill="#1a1a1a">desempeño</text>
<rect x="1260.0" y="368.0" width="160" height="64" rx="10" ry="10" class="task"/>
<text x="1340.0" y="392.5" font-size="13" font-family="Segoe UI, Helvetica, Arial, sans-serif" text-anchor="middle" dominant-baseline="middle" fill="#1a1a1a">Análisis SHAP</text>
<text x="1340.0" y="407.5" font-size="13" font-family="Segoe UI, Helvetica, Arial, sans-serif" text-anchor="middle" dominant-baseline="middle" fill="#1a1a1a">por circuito</text>
<rect x="1260.0" y="448.0" width="160" height="64" rx="10" ry="10" class="task"/>
<text x="1340.0" y="472.5" font-size="13" font-family="Segoe UI, Helvetica, Arial, sans-serif" text-anchor="middle" dominant-baseline="middle" fill="#1a1a1a">Replicación</text>
<text x="1340.0" y="487.5" font-size="13" font-family="Segoe UI, Helvetica, Arial, sans-serif" text-anchor="middle" dominant-baseline="middle" fill="#1a1a1a">de documento</text>
<rect x="470.0" y="658.0" width="160" height="64" rx="10" ry="10" class="task"/>
<text x="550.0" y="682.5" font-size="13" font-family="Segoe UI, Helvetica, Arial, sans-serif" text-anchor="middle" dominant-baseline="middle" fill="#1a1a1a">Detección de</text>
<text x="550.0" y="697.5" font-size="13" font-family="Segoe UI, Helvetica, Arial, sans-serif" text-anchor="middle" dominant-baseline="middle" fill="#1a1a1a">puntos críticos</text>
<rect x="690.0" y="658.0" width="160" height="64" rx="10" ry="10" class="task"/>
<text x="770.0" y="682.5" font-size="13" font-family="Segoe UI, Helvetica, Arial, sans-serif" text-anchor="middle" dominant-baseline="middle" fill="#1a1a1a">Construcción de contexto</text>
<text x="770.0" y="697.5" font-size="13" font-family="Segoe UI, Helvetica, Arial, sans-serif" text-anchor="middle" dominant-baseline="middle" fill="#1a1a1a">estructurado</text>
<rect x="930.0" y="658.0" width="160" height="64" rx="10" ry="10" class="task"/>
<text x="1010.0" y="675.0" font-size="13" font-family="Segoe UI, Helvetica, Arial, sans-serif" text-anchor="middle" dominant-baseline="middle" fill="#1a1a1a">Agentes LLM</text>
<text x="1010.0" y="690.0" font-size="13" font-family="Segoe UI, Helvetica, Arial, sans-serif" text-anchor="middle" dominant-baseline="middle" fill="#1a1a1a">(historical / inference /</text>
<text x="1010.0" y="705.0" font-size="13" font-family="Segoe UI, Helvetica, Arial, sans-serif" text-anchor="middle" dominant-baseline="middle" fill="#1a1a1a">expert-alignment)</text>
<polygon points="1190,668.0 1212.0,690.0 1190,712.0 1168.0,690.0" class="gw"/>
<text x="1190.0" y="690.0" font-size="22" text-anchor="middle" dominant-baseline="middle" fill="#8a6100" font-weight="700">×</text>
<rect x="930.0" y="508.0" width="160" height="64" rx="10" ry="10" class="task"/>
<text x="1010.0" y="532.5" font-size="13" font-family="Segoe UI, Helvetica, Arial, sans-serif" text-anchor="middle" dominant-baseline="middle" fill="#1a1a1a">Revisar respuesta</text>
<text x="1010.0" y="547.5" font-size="13" font-family="Segoe UI, Helvetica, Arial, sans-serif" text-anchor="middle" dominant-baseline="middle" fill="#1a1a1a">(máx. 2 reintentos)</text>
<circle cx="1190.0" cy="840.0" r="18.0" class="ev-end"/>
<text x="1190.0" y="868.5" font-size="12" font-family="Segoe UI, Helvetica, Arial, sans-serif" text-anchor="middle" dominant-baseline="middle" fill="#1a1a1a">Detener ejecución</text>
<text x="1190.0" y="883.5" font-size="12" font-family="Segoe UI, Helvetica, Arial, sans-serif" text-anchor="middle" dominant-baseline="middle" fill="#1a1a1a">del circuito</text>
<rect x="1260.0" y="658.0" width="160" height="64" rx="10" ry="10" class="task"/>
<text x="1340.0" y="682.5" font-size="13" font-family="Segoe UI, Helvetica, Arial, sans-serif" text-anchor="middle" dominant-baseline="middle" fill="#1a1a1a">Renderizar reporte HTML</text>
<text x="1340.0" y="697.5" font-size="13" font-family="Segoe UI, Helvetica, Arial, sans-serif" text-anchor="middle" dominant-baseline="middle" fill="#1a1a1a">(plotting.py)</text>
<rect x="1460.0" y="658.0" width="160" height="64" rx="10" ry="10" class="task"/>
<text x="1540.0" y="682.5" font-size="13" font-family="Segoe UI, Helvetica, Arial, sans-serif" text-anchor="middle" dominant-baseline="middle" fill="#1a1a1a">Simulación min/máx +</text>
<text x="1540.0" y="697.5" font-size="13" font-family="Segoe UI, Helvetica, Arial, sans-serif" text-anchor="middle" dominant-baseline="middle" fill="#1a1a1a">what-if</text>
<rect x="1460.0" y="928.0" width="160" height="64" rx="10" ry="10" class="task"/>
<text x="1540.0" y="952.5" font-size="13" font-family="Segoe UI, Helvetica, Arial, sans-serif" text-anchor="middle" dominant-baseline="middle" fill="#1a1a1a">Exportación web</text>
<text x="1540.0" y="967.5" font-size="13" font-family="Segoe UI, Helvetica, Arial, sans-serif" text-anchor="middle" dominant-baseline="middle" fill="#1a1a1a">(web_export.py)</text>
<rect x="1670.0" y="928.0" width="160" height="64" rx="10" ry="10" class="task"/>
<text x="1750.0" y="952.5" font-size="13" font-family="Segoe UI, Helvetica, Arial, sans-serif" text-anchor="middle" dominant-baseline="middle" fill="#1a1a1a">GitHub Actions</text>
<text x="1750.0" y="967.5" font-size="13" font-family="Segoe UI, Helvetica, Arial, sans-serif" text-anchor="middle" dominant-baseline="middle" fill="#1a1a1a">(deploy-pages.yml)</text>
<circle cx="1930.0" cy="960.0" r="18.0" class="ev-end"/>
<text x="1930.0" y="988.5" font-size="12" font-family="Segoe UI, Helvetica, Arial, sans-serif" text-anchor="middle" dominant-baseline="middle" fill="#1a1a1a">GitHub Pages</text>
<text x="1930.0" y="1003.5" font-size="12" font-family="Segoe UI, Helvetica, Arial, sans-serif" text-anchor="middle" dominant-baseline="middle" fill="#1a1a1a">publicado</text>
<rect x="1063.4" y="606.5" width="123.2" height="17.0" class="flow-label-bg"/>
<text x="1125.0" y="615.0" class="flow-label" text-anchor="middle">no, con reintentos</text>
<rect x="1211.2" y="730.0" width="97.6" height="30.0" class="flow-label-bg"/>
<text x="1260.0" y="738.5" class="flow-label" text-anchor="middle">no, reintentos</text>
<text x="1260.0" y="751.5" class="flow-label" text-anchor="middle">agotados</text>
<rect x="1176.0" y="667.5" width="72.0" height="17.0" class="flow-label-bg"/>
<text x="1212.0" y="676.0" class="flow-label" text-anchor="middle">sí, válido</text>
</svg>